<?xml version="1.0" encoding="UTF-8"?>
<svg width="15px" height="16px" viewBox="0 0 15 16" version="1.1" xmlns="http://www.w3.org/2000/svg" xmlns:xlink="http://www.w3.org/1999/xlink">
    <title>ic_books_bicolor</title>
    <g id="ic_books_bicolor" stroke="none" stroke-width="1" fill="none" fill-rule="evenodd">
        <path d="M7.5,1 L14,1 L14,15 L7.5,15 L7.5,1 Z M1,3.47058824 L7.5,3.47058824 L7.5,15 L1,15 L1,3.47058824 Z" id="Shape" fill="#69727D" fill-rule="nonzero" opacity="0.3"></path>
        <path d="M14.2,16 L7.8,16 C7.32,16 7,15.6631579 7,15.1578947 L7,0.842105263 C7,0.336842105 7.32,0 7.8,0 L14.2,0 C14.68,0 15,0.336842105 15,0.842105263 L15,15.1578947 C15,15.6631579 14.68,16 14.2,16 Z M8.6,14.3157895 L13.4,14.3157895 L13.4,1.68421053 L8.6,1.68421053 L8.6,14.3157895 Z" id="Shape" fill="#69727D" fill-rule="nonzero"></path>
        <path d="M9.76923077,11.3636364 L14,11.3636364 L14,13 L9.76923077,13 L9.76923077,11.3636364 Z M9.76923077,4 L14,4 L14,5.63636364 L9.76923077,5.63636364 L9.76923077,4 Z M3,11.3636364 L6.38461538,11.3636364 L6.38461538,13 L3,13 L3,11.3636364 Z M3,6.45454545 L6.38461538,6.45454545 L6.38461538,8.09090909 L3,8.09090909 L3,6.45454545 Z" id="Shape" fill="#69727D" fill-rule="nonzero"></path>
        <path d="M7.2,16 L0.8,16 C0.32,16 0,15.675 0,15.1875 L0,3.8125 C0,3.325 0.32,3 0.8,3 L7.2,3 C7.68,3 8,3.325 8,3.8125 L8,15.1875 C8,15.675 7.68,16 7.2,16 Z M1.6,14.375 L6.4,14.375 L6.4,4.625 L1.6,4.625 L1.6,14.375 Z" id="Shape" fill="#69727D" fill-rule="nonzero"></path>
    </g>
</svg>