<?xml version="1.0" encoding="UTF-8"?>
<svg width="14px" height="15px" viewBox="0 0 14 15" version="1.1" xmlns="http://www.w3.org/2000/svg" xmlns:xlink="http://www.w3.org/1999/xlink">
    <title>ic_calendar_bicolor</title>
    <g id="ic_calendar_bicolor" stroke="none" stroke-width="1" fill="none" fill-rule="evenodd">
        <polygon id="Path" fill="#69727D" fill-rule="nonzero" opacity="0.3" points="1 2 13 2 13 5 1 5"></polygon>
        <path d="M2,0 L3.5,0 L3.5,3 L2,3 L2,0 Z M9.5,0 L11,0 L11,3 L9.5,3 L9.5,0 Z" id="Shape" fill="#69727D" fill-rule="nonzero"></path>
        <path d="M12.4444444,1 L1.55555556,1 C0.7,1 0,1.7 0,2.55555556 L0,13.4444444 C0,14.3 0.7,15 1.55555556,15 L12.4444444,15 C13.3,15 14,14.3 14,13.4444444 L14,2.55555556 C14,1.7 13.3,1 12.4444444,1 Z M12.4444444,13.4444444 L1.55555556,13.4444444 L1.55555556,5.66666667 L12.4444444,5.66666667 L12.4444444,13.4444444 Z M12.4444444,4.11111111 L1.55555556,4.11111111 L1.55555556,2.55555556 L12.4444444,2.55555556 L12.4444444,4.11111111 Z" id="Shape" fill="#69727D" fill-rule="nonzero"></path>
    </g>
</svg>