<?xml version="1.0" encoding="UTF-8"?>
<svg width="20px" height="18px" viewBox="0 0 20 18" version="1.1" xmlns="http://www.w3.org/2000/svg" xmlns:xlink="http://www.w3.org/1999/xlink">
    <title>ic_movie_bicolor</title>
    <g id="ic_movie_bicolor" stroke="none" stroke-width="1" fill="none" fill-rule="evenodd">
        <path d="M4,12 L6,12 L6,14 L4,14 L4,12 Z M4,8 L6,8 L6,10 L4,10 L4,8 Z M14,12 L16,12 L16,14 L14,14 L14,12 Z M14,8 L16,8 L16,10 L14,10 L14,8 Z M4,4 L6,4 L6,6 L4,6 L4,4 Z M14,4 L16,4 L16,6 L14,6 L14,4 Z" id="Shape" fill="#000000" fill-rule="nonzero"></path>
        <path d="M18,18 L2,18 C0.9,18 0,17.1 0,16 L0,2 C0,0.9 0.9,0 2,0 L18,0 C19.1,0 20,0.9 20,2 L20,16 C20,17.1 19.1,18 18,18 Z M2,2 L2,16 L18,16 L18,2 L2,2 Z" id="Shape" fill="#000000" fill-rule="nonzero"></path>
        <polygon id="Path" fill="#000000" fill-rule="nonzero" opacity="0.3" points="1 1 19 1 19 17 1 17"></polygon>
    </g>
</svg>