<?xml version="1.0" encoding="UTF-8"?>
<svg width="20px" height="20px" viewBox="0 0 20 20" version="1.1" xmlns="http://www.w3.org/2000/svg" xmlns:xlink="http://www.w3.org/1999/xlink">
    <title>ic_tv_bicolor</title>
    <g id="ic_tv_bicolor" stroke="none" stroke-width="1" fill="none" fill-rule="evenodd">
        <path d="M17,20 L3,20 C1.3,20 0,18.7 0,17 L0,8 C0,6.3 1.3,5 3,5 L17,5 C18.7,5 20,6.3 20,8 L20,17 C20,18.7 18.7,20 17,20 Z M3,7 C2.4,7 2,7.4 2,8 L2,17 C2,17.6 2.4,18 3,18 L17,18 C17.6,18 18,17.6 18,17 L18,8 C18,7.4 17.6,7 17,7 L3,7 Z" id="Shape" fill="#000000" fill-rule="nonzero"></path>
        <path d="M12,20 L12,18 C12.6,18 13,17.6 13,17 L13,8 C13,7.4 12.6,7 12,7 L12,5 C13.7,5 15,6.3 15,8 L15,17 C15,18.7 13.7,20 12,20 Z" id="Path" fill="#000000" fill-rule="nonzero"></path>
        <path d="M10.7,6.7 L9.2,6.6 L5.9,2.1 L7.5,1 L10.1,4.5 L14.6,0 L16,1.4 L10.7,6.7 Z M16,9 L19,9 L19,11 L16,11 L16,9 Z M16,12 L19,12 L19,14 L16,14 L16,12 Z" id="Shape" fill="#000000" fill-rule="nonzero"></path>
        <path d="M17,19 L14,19 L14,6 L17,6 C18.1,6 19,6.9 19,8 L19,17 C19,18.1 18.1,19 17,19 Z" id="Path" fill="#000000" fill-rule="nonzero" opacity="0.3"></path>
    </g>
</svg>