<?xml version="1.0" encoding="UTF-8"?>
<svg width="20px" height="20.0102031px" viewBox="0 0 20 20.0102031" version="1.1" xmlns="http://www.w3.org/2000/svg" xmlns:xlink="http://www.w3.org/1999/xlink">
    <title>ic_tv</title>
    <g id="ic_tv" stroke="none" stroke-width="1" fill="none" fill-rule="evenodd">
        <path d="M14.980469,0.00043749613 C14.7206704,0.0081786373 14.4740906,0.116757814 14.292969,0.303171916 L10.109375,4.48676562 L7.8007812,1.41059372 C7.58656139,1.12450215 7.2359861,0.974427544 6.88111363,1.01690155 C6.52624116,1.05937556 6.22098509,1.28794538 6.08033243,1.61651095 C5.93967976,1.94507653 5.98499899,2.32372095 6.1992188,2.60981252 L8,5.01020312 L3,5.01020312 C1.346,5.01020312 0,6.35620312 0,8.01020312 L0,17.0102031 C0,18.6642031 1.346,20.0102031 3,20.0102031 L17,20.0102031 C18.654,20.0102031 20,18.6642031 20,17.0102031 L20,8.01020312 C20,6.35620312 18.654,5.01020312 17,5.01020312 L12.414062,5.01020312 L15.707031,1.71723432 C16.0027914,1.42974296 16.0917198,0.990168408 15.9309656,0.610321613 C15.7702114,0.230474818 15.3927525,-0.0117209203 14.980469,0.00043749613 L14.980469,0.00043749613 Z M3,7.01020312 L9.972656,7.01020312 L13,7.01020312 C13.552,7.01020312 14,7.45920312 14,8.01020312 L14,17.0102031 C14,17.5612031 13.552,18.0102031 13,18.0102031 L3,18.0102031 C2.448,18.0102031 2,17.5612031 2,17.0102031 L2,8.01020312 C2,7.45920312 2.448,7.01020312 3,7.01020312 Z M16.5,8.01020312 L17.5,8.01020312 C17.776,8.01020312 18,8.23420312 18,8.51020312 L18,9.51020312 C18,9.78620312 17.776,10.0102031 17.5,10.0102031 L16.5,10.0102031 C16.224,10.0102031 16,9.78620312 16,9.51020312 L16,8.51020312 C16,8.23420312 16.224,8.01020312 16.5,8.01020312 Z M16.5,12.0102031 L17.5,12.0102031 C17.776,12.0102031 18,12.2342031 18,12.5102031 L18,13.5102031 C18,13.7862031 17.776,14.0102031 17.5,14.0102031 L16.5,14.0102031 C16.224,14.0102031 16,13.7862031 16,13.5102031 L16,12.5102031 C16,12.2342031 16.224,12.0102031 16.5,12.0102031 Z" id="Shape" fill="#141416" fill-rule="nonzero"></path>
    </g>
</svg>