<?xml version="1.0" encoding="UTF-8"?>
<svg width="23.0142425px" height="24.000197px" viewBox="0 0 23.0142425 24.000197" version="1.1" xmlns="http://www.w3.org/2000/svg" xmlns:xlink="http://www.w3.org/1999/xlink">
    <title>ic_books</title>
    <g id="ic_books" stroke="none" stroke-width="1" fill="none" fill-rule="evenodd">
        <path d="M3,0 C1.343,0 0,1.343 0,3 L0,16 C0,16.2661567 0.106190102,16.5213149 0.2949219,16.708984 C0.6477556,17.972969 1.6303589,19 3,19 L5,19 L5,17 L3,17 C2.4349698,17 2,16.56503 2,16 C2,15.542696 2.2910232,15.183861 2.6992188,15.058594 L5,15.25 L5,7 C5,4.791 6.791,3 9,3 L16,3 L16,2 C16,0.895 15.105,0 14,0 L3,0 Z M10,5 C8.343,5 7,6.343 7,8 L7,21 C7,21.2661567 7.10619016,21.5213149 7.294922,21.708984 C7.647756,22.972969 8.630359,24.0001004 10,24.0001004 L22,24.0001004 C22.3606359,24.0051003 22.6960814,23.8156247 22.8778877,23.5041272 C23.0596941,23.1926296 23.0596941,22.8073704 22.8778877,22.4958728 C22.6960814,22.1843753 22.3606359,21.9948997 22,22 L10,22 C9.43497,22 9,21.56503 9,21 C9,20.43497 9.43497,20 10,20 L21,20 C22.105,20 23,19.105 23,18 L23,7 C23,5.895 22.105,5 21,5 L10,5 Z M12,9 L18,9 C18.552,9 19,9.448 19,10 C19,10.552 18.552,11 18,11 L12,11 C11.448,11 11,10.552 11,10 C11,9.448 11.448,9 12,9 Z" id="Shape" fill="#141416" fill-rule="nonzero"></path>
    </g>
</svg>